<svg width="64" height="64" viewBox="0 0 64 64" fill="none" xmlns="http://www.w3.org/2000/svg">
<path d="M63.9948 5.12482V62.7201C63.9948 63.0596 63.8599 63.3851 63.6199 63.6251C63.3799 63.8652 63.0543 64 62.7149 64H1.2799C0.940446 64 0.6149 63.8652 0.374873 63.6251C0.134846 63.3851 0 63.0596 0 62.7201V5.12482C0 4.78537 0.134846 4.45982 0.374873 4.2198C0.6149 3.97977 0.940446 3.84492 1.2799 3.84492H18.6737L17.0098 2.19386C16.7688 1.95285 16.6334 1.62597 16.6334 1.28513C16.6334 0.944294 16.7688 0.617416 17.0098 0.376407C17.2508 0.135398 17.5777 0 17.9185 0C18.2594 0 18.5863 0.135398 18.8273 0.376407L22.6669 4.21609C22.7703 4.32855 22.8526 4.45859 22.9101 4.60006C22.9173 4.64242 22.9173 4.68569 22.9101 4.72805C22.9235 4.83429 22.9235 4.94179 22.9101 5.04802V5.12482C22.9095 5.26071 22.8835 5.39529 22.8333 5.52159C22.7802 5.66527 22.6973 5.79611 22.5902 5.90555L18.7505 9.74524C18.6315 9.8652 18.4899 9.96042 18.334 10.0254C18.178 10.0904 18.0107 10.1238 17.8417 10.1238C17.6728 10.1238 17.5055 10.0904 17.3495 10.0254C17.1936 9.96042 17.052 9.8652 16.933 9.74524C16.8131 9.62626 16.7178 9.4847 16.6529 9.32873C16.5879 9.17276 16.5544 9.00548 16.5544 8.83651C16.5544 8.66755 16.5879 8.50026 16.6529 8.3443C16.7178 8.18833 16.8131 8.04677 16.933 7.92779L18.6737 6.40471H2.55979V61.4402H61.435V6.40471H30.7175C30.378 6.40471 30.0525 6.26987 29.8125 6.02984C29.5724 5.78981 29.4376 5.46427 29.4376 5.12482C29.4376 4.78537 29.5724 4.45982 29.8125 4.2198C30.0525 3.97977 30.378 3.84492 30.7175 3.84492H62.7149C63.0543 3.84492 63.3799 3.97977 63.6199 4.2198C63.8599 4.45982 63.9948 4.78537 63.9948 5.12482Z" fill="#58A55C"/>
<path d="M47.3562 41.0571C47.3562 42.1981 46.9196 43.2924 46.1426 44.0992C45.3655 44.9061 44.3116 45.3593 43.2127 45.3593H31.8008L31.7738 45.3985L26.4342 50.9427C26.3167 51.0641 26.1672 51.1466 26.0046 51.18C25.842 51.2134 25.6735 51.1961 25.5203 51.1304C25.3671 51.0646 25.2361 50.9533 25.1437 50.8104C25.0513 50.6675 25.0016 50.4994 25.001 50.3273V45.3593H20.7821C19.6832 45.3593 18.6293 44.9061 17.8523 44.0992C17.0752 43.2924 16.6387 42.1981 16.6387 41.0571V23.5014C16.6387 22.3604 17.0752 21.2661 17.8523 20.4593C18.6293 19.6525 19.6832 19.1992 20.7821 19.1992H43.2127C44.3116 19.1992 45.3655 19.6525 46.1426 20.4593C46.9196 21.2661 47.3562 22.3604 47.3562 23.5014V41.0571ZM33.1747 37.5549C33.1747 37.365 33.1021 37.1829 32.9727 37.0486C32.8434 36.9143 32.668 36.8388 32.485 36.8388H30.7177C30.5348 36.8388 30.3594 36.9143 30.2301 37.0486C30.1007 37.1829 30.0281 37.365 30.0281 37.5549V38.7466C30.0281 38.9365 30.1007 39.1186 30.2301 39.2529C30.3594 39.3872 30.5348 39.4627 30.7177 39.4627H32.485C32.668 39.4627 32.8434 39.3872 32.9727 39.2529C33.1021 39.1186 33.1747 38.9365 33.1747 38.7466V37.5549ZM36.677 29.4205C36.7025 28.83 36.6012 28.241 36.3803 27.6962C36.1595 27.1514 35.8246 26.6645 35.4 26.2707C34.4106 25.4434 33.1607 25.0268 31.8923 25.1015C30.6987 25.0421 29.5203 25.4007 28.5463 26.1197C28.1723 26.4264 27.8683 26.8151 27.6559 27.2581C27.4435 27.701 27.3281 28.1873 27.3179 28.682C27.3142 28.7441 27.3227 28.8063 27.343 28.8648C27.3632 28.9234 27.3947 28.9771 27.4355 29.0226C27.4763 29.0681 27.5256 29.1045 27.5804 29.1297C27.6352 29.1548 27.6944 29.1681 27.7543 29.1687L29.7641 29.2079C29.9225 29.2141 30.0786 29.166 30.2081 29.0709C30.3377 28.9759 30.4334 28.8392 30.4807 28.682C30.5455 28.4291 30.6804 28.2015 30.8686 28.0274C31.1495 27.7659 31.5151 27.624 31.8923 27.6302C32.1147 27.6156 32.3374 27.6516 32.5449 27.7357C32.7525 27.8198 32.9398 27.9499 33.0939 28.1169C33.3879 28.4805 33.5381 28.9464 33.5142 29.4205C33.5236 29.911 33.3984 30.3941 33.1532 30.8135C32.904 31.2254 32.5666 31.572 32.1671 31.8261C31.5299 32.2497 30.9638 32.7789 30.4914 33.3926C30.2228 33.8407 30.0706 34.3534 30.0496 34.8807C30.0428 34.9517 30.0505 35.0234 30.072 35.0911C30.0936 35.1588 30.1287 35.221 30.1749 35.2737C30.2211 35.3265 30.2775 35.3686 30.3404 35.3972C30.4033 35.4259 30.4713 35.4405 30.5399 35.4402H32.6952C32.8164 35.441 32.9336 35.3951 33.0241 35.3114C33.1147 35.2277 33.1722 35.1121 33.1855 34.987C33.2045 34.7016 33.2701 34.4216 33.3795 34.159C33.5657 33.7945 33.8454 33.4905 34.1877 33.2807C34.8941 32.9009 35.5021 32.3502 35.9604 31.6751C36.4291 31.022 36.6824 30.2293 36.6824 29.4149L36.677 29.4205Z" fill="#58A55C"/>
</svg>
