<svg width="39" height="39" viewBox="0 0 39 39" fill="none" xmlns="http://www.w3.org/2000/svg">
<rect opacity="0.1" width="39" height="39" rx="7" fill="#58A55C"/>
<path d="M31 24.7117C31 25.5318 30.6873 26.3184 30.1308 26.8984C29.5743 27.4783 28.8195 27.8041 28.0325 27.8041H19.8591L19.8399 27.8323L16.0156 31.8175C15.9314 31.9047 15.8244 31.9641 15.7079 31.9881C15.5915 32.0121 15.4708 31.9997 15.3611 31.9524C15.2514 31.9051 15.1575 31.8251 15.0913 31.7224C15.0252 31.6197 14.9896 31.4988 14.9891 31.3751V27.8041H11.9675C11.1805 27.8041 10.4257 27.4783 9.86918 26.8984C9.31265 26.3184 9 25.5318 9 24.7117V12.0925C9 11.2723 9.31265 10.4857 9.86918 9.90576C10.4257 9.32581 11.1805 9 11.9675 9H28.0325C28.8195 9 29.5743 9.32581 30.1308 9.90576C30.6873 10.4857 31 11.2723 31 12.0925V24.7117ZM20.8432 22.1943C20.8432 22.0577 20.7911 21.9268 20.6985 21.8303C20.6059 21.7337 20.4802 21.6795 20.3492 21.6795H19.0835C18.9525 21.6795 18.8269 21.7337 18.7342 21.8303C18.6416 21.9268 18.5895 22.0577 18.5895 22.1943V23.0508C18.5895 23.1873 18.6416 23.3183 18.7342 23.4148C18.8269 23.5113 18.9525 23.5656 19.0835 23.5656H20.3492C20.4802 23.5656 20.6059 23.5113 20.6985 23.4148C20.7911 23.3183 20.8432 23.1873 20.8432 23.0508V22.1943ZM23.3515 16.3471C23.3698 15.9227 23.2972 15.4993 23.1391 15.1077C22.9809 14.7161 22.741 14.3661 22.4369 14.0831C21.7283 13.4884 20.8331 13.1889 19.9248 13.2426C19.0698 13.1999 18.2259 13.4577 17.5283 13.9745C17.2605 14.1949 17.0427 14.4744 16.8906 14.7928C16.7385 15.1112 16.6558 15.4607 16.6485 15.8163C16.6459 15.8609 16.652 15.9056 16.6665 15.9477C16.6809 15.9898 16.7035 16.0284 16.7327 16.0611C16.762 16.0938 16.7973 16.12 16.8365 16.1381C16.8758 16.1561 16.9182 16.1657 16.9611 16.1662L18.4005 16.1943C18.514 16.1988 18.6257 16.1642 18.7185 16.0959C18.8113 16.0276 18.8799 15.9293 18.9137 15.8163C18.9601 15.6345 19.0567 15.4709 19.1915 15.3458C19.3927 15.1578 19.6546 15.0558 19.9248 15.0603C20.084 15.0498 20.2435 15.0757 20.3921 15.1361C20.5408 15.1965 20.6749 15.2901 20.7853 15.4101C20.9959 15.6715 21.1035 16.0063 21.0863 16.3471C21.0931 16.6997 21.0034 17.047 20.8277 17.3485C20.6493 17.6446 20.4076 17.8937 20.1216 18.0763C19.6652 18.3808 19.2597 18.7612 18.9214 19.2023C18.729 19.5244 18.62 19.893 18.605 20.272C18.6001 20.323 18.6056 20.3745 18.621 20.4232C18.6365 20.4719 18.6616 20.5166 18.6947 20.5545C18.7278 20.5924 18.7682 20.6227 18.8132 20.6433C18.8583 20.6639 18.907 20.6744 18.9561 20.6742H20.4997C20.5866 20.6747 20.6705 20.6417 20.7353 20.5816C20.8002 20.5214 20.8414 20.4384 20.8509 20.3484C20.8645 20.1433 20.9115 19.942 20.9898 19.7533C21.1232 19.4912 21.3236 19.2727 21.5687 19.1219C22.0746 18.8489 22.5101 18.453 22.8383 17.9677C23.174 17.4984 23.3554 16.9285 23.3554 16.3431L23.3515 16.3471Z" fill="#58A55C"/>
</svg>
