<svg width="82" height="82" viewBox="0 0 82 82" fill="none" xmlns="http://www.w3.org/2000/svg">
<circle cx="41" cy="41" r="36" fill="#46A0F4"/>
<circle cx="41" cy="41" r="38.5" stroke="black" stroke-opacity="0.05" stroke-width="5"/>
<path fill-rule="evenodd" clip-rule="evenodd" d="M36.2075 42.1061C37.0649 42.6767 38.0654 43.1011 39.1228 43.3598C40.5406 43.7069 42.0345 43.7069 43.4523 43.3598C44.5097 43.1011 45.5102 42.6767 46.3676 42.1061C51.3037 38.8209 49.1755 30.5504 46.4701 26.5115C45.4184 24.9416 43.6828 23.2854 41.6989 23.028C39.4509 22.7358 37.2583 24.7896 36.1054 26.5111C33.3996 30.5504 31.2714 38.8209 36.2075 42.1061ZM24.7998 55.6076C24.7998 51.0848 32.1818 47.4181 41.2878 47.4181C50.3933 47.4181 57.7753 51.0848 57.7753 55.6076C57.7753 60.1308 24.7998 60.1308 24.7998 55.6076Z" fill="white"/>
</svg>
